<?xml version="1.0" encoding="UTF-8" standalone="no"?>
<!-- Created with Inkscape (http://www.inkscape.org/) -->

<svg
   xmlns:dc="http://purl.org/dc/elements/1.1/"
   xmlns:cc="http://creativecommons.org/ns#"
   xmlns:rdf="http://www.w3.org/1999/02/22-rdf-syntax-ns#"
   xmlns:svg="http://www.w3.org/2000/svg"
   xmlns="http://www.w3.org/2000/svg"
   version="1.2"
   width="744.09448"
   height="1052.3622"
   id="svg2">
  <defs
     id="defs4" />
  <metadata
     id="metadata7">
    <rdf:RDF>
      <cc:Work
         rdf:about="">
        <dc:format>image/svg+xml</dc:format>
        <dc:type
           rdf:resource="http://purl.org/dc/dcmitype/StillImage" />
        <dc:title></dc:title>
      </cc:Work>
    </rdf:RDF>
  </metadata>
  <g
     id="layer1">
    <path
       d="m 478.1025,561.89504 0,-8.29422 8.65787,-1.14501 c 12.23404,-1.61794 13.54504,-5.34188 13.54504,-38.47517 0,-33.326 2.58938,-43.473 13.94351,-54.6404 7.73668,-7.60943 7.8712,-7.91552 4.67724,-10.64196 -1.80871,-1.54394 -3.88263,-2.80716 -4.60871,-2.80716 -2.05878,0 -7.7401,-10.19661 -10.91021,-19.58122 -2.18245,-6.46078 -2.90312,-14.91858 -2.98885,-35.07724 -0.0622,-14.61001 -0.9373,-28.92108 -1.94479,-31.80238 -1.89016,-5.40561 -8.30217,-8.89115 -16.35617,-8.89115 -3.6793,0 -4.01493,-0.7117 -4.01493,-8.51358 l 0,-8.51357 7.75367,0 c 10.66026,0 19.59891,4.94301 24.42757,13.50828 3.60662,6.39757 4.1401,10.38642 5.77355,43.16927 1.72812,34.68246 1.97843,36.38928 6.288,42.87542 2.88723,4.34544 6.45836,7.31836 10.01124,8.33421 5.34069,1.52702 5.52302,1.88018 5.52302,10.69776 0,7.93196 -0.43711,9.11862 -3.3589,9.11862 -4.17214,0 -15.09741,10.65374 -16.18482,15.78257 -0.44296,2.08926 -1.52457,19.12307 -2.40358,37.85293 -1.66964,35.57643 -2.84652,41.11287 -10.2522,48.22968 -5.41751,5.20621 -10.77058,7.10852 -20.00311,7.10852 l -7.57444,0 0,-8.2942 z"
       id="path3027"
       style="fill:#ff6600;fill-opacity:0.94901961;stroke:#ffffff;stroke-width:1.70531297" />
    <path
       d="m 270.22377,577.45859 c -5.82843,-2.865 -11.05081,-10.2248 -13.16841,-18.55797 -0.70687,-2.78163 -1.57973,-19.61574 -1.93971,-37.4091 -0.59067,-29.19622 -1.01921,-33.05874 -4.39386,-39.60212 -2.92401,-5.66959 -5.16885,-7.67754 -10.29528,-9.20877 -6.51379,-1.94563 -6.55592,-2.0153 -6.55592,-10.84078 0,-8.52701 0.20716,-8.92389 5.17528,-9.91448 6.93272,-1.38232 12.81573,-8.06378 15.11472,-17.16609 1.03801,-4.10972 2.32822,-18.84063 2.86716,-32.73534 1.15154,-29.68834 3.08641,-40.27573 8.74031,-47.82587 5.46852,-7.30257 12.31208,-10.64017 21.81706,-10.64017 l 7.77043,0 0,8.29594 0,8.29595 -6.62695,1.05646 c -3.64483,0.58106 -8.39927,2.48723 -10.56543,4.23594 -3.72888,3.01028 -4.04893,4.98171 -6.01417,37.04655 -1.40135,22.86443 -2.93326,35.80317 -4.71533,39.82657 -2.99884,6.77048 -10.04917,15.32443 -12.6307,15.32443 -0.94988,0 -2.55038,0.98901 -3.55665,2.19781 -1.38127,1.65926 -0.38196,3.34938 4.07813,6.89735 12.66405,10.07409 14.16402,15.58219 15.37517,56.45933 0.50868,17.16832 1.74519,32.32423 2.81129,34.45791 1.42903,2.86008 3.9618,4.08133 10.166,4.90183 l 8.26281,1.09277 0,8.2942 0,8.29421 -8.11259,-0.0389 c -4.46194,-0.0212 -10.58344,-1.25333 -13.60336,-2.73779 l 0,6e-5 z"
       id="path3029"
       style="fill:#ff6600;fill-opacity:0.94901961;stroke:#ffffff;stroke-width:1.70531297" />
    <path
       d="m 455.31615,468.28169 c -0.61082,-11.94028 -1.11372,-37.6087 -1.11752,-57.04092 l -0.007,-35.33133 11.10146,0 11.10144,0 -0.007,35.33133 c -0.004,19.43222 -0.50671,45.10064 -1.11753,57.04092 l -1.11053,21.70961 -8.86639,0 -8.8664,0 -1.11061,-21.70961 z"
       id="path3031"
       style="fill:#ff6600;fill-opacity:0.94901961;stroke:#ffffff;stroke-width:1.70531297" />
    <path
       d="m 455.8996,520.64016 0,-13.62173 11.10146,0 11.10144,0 0,13.62173 0,13.62171 -11.10144,0 -11.10146,0 0,-13.62171 z"
       id="path3033"
       style="fill:#ff6600;fill-opacity:0.94901961;stroke:#ffffff;stroke-width:1.70531297" />
    <path
       d="m 316.44117,519.36312 c 0.59733,-6.32133 1.57856,-14.74976 2.1805,-18.72985 l 1.09445,-7.23654 -12.18029,0 -12.18028,0 0,-9.36493 0,-9.36493 13.50305,0 13.50306,0 0.94201,-8.08788 c 0.51812,-4.44835 1.41997,-13.25989 2.00413,-19.58122 l 1.0621,-11.49332 -15.50718,0 -15.50717,0 0,-8.51357 0,-8.51358 16.88237,0 16.88235,0 0.97675,-8.93925 c 0.53721,-4.91658 1.46979,-13.72812 2.0724,-19.58121 l 1.09566,-10.64196 8.53215,0 8.53215,0 -0.97365,8.0879 c -0.53549,4.44834 -1.46572,13.25989 -2.06715,19.58121 l -1.0935,11.49331 20.69395,0 20.69395,0 0,-7.6306 c 0,-4.19685 0.92501,-13.00838 2.05557,-19.58121 l 2.05556,-11.95061 8.4154,0 8.41541,0 -1.15499,6.38518 c -0.63524,3.51185 -1.61419,12.32339 -2.17543,19.58122 l -1.02046,13.19602 12.19946,0 12.19946,0 0,8.51358 0,8.51357 -13.31736,0 -13.31736,0 -2.944,17.45282 c -1.6192,9.59905 -2.92772,18.41059 -2.90784,19.58121 0.0263,1.55082 4.4391,2.12839 16.26137,2.12839 l 16.22519,0 0,9.36493 0,9.36493 -17.93311,0 -17.93311,0 0,6.90854 c 0,3.79971 -0.8812,12.22814 -1.95821,18.72986 l -1.95822,11.82131 -8.48313,0 -8.48312,0 1.02838,-5.53382 c 0.56561,-3.0436 1.53122,-11.47204 2.14581,-18.72985 l 1.11743,-13.19604 -19.63479,0 -19.63477,0 -1.95822,11.82131 c -1.07701,6.50172 -1.95821,14.93016 -1.95821,18.72985 l 0,6.90855 -8.7873,0 -8.78728,0 1.08606,-11.49332 0,0 z m 64.90235,-61.64645 c 1.553,-9.3226 2.82364,-18.13415 2.82364,-19.58121 0,-2.22529 -3.13013,-2.63101 -20.2982,-2.63101 l -20.29819,0 -0.97676,8.93925 c -0.5372,4.91659 -1.46978,13.72814 -2.07239,19.58121 l -1.09566,10.64196 19.54696,0 19.54697,0 2.82363,-16.9502 z"
       id="path3035"
       style="fill:#ff6600;fill-opacity:0.94901961;stroke:#ffffff;stroke-width:1.70531297" />
  </g>
</svg>
